<?xml version="1.0" encoding="utf-8"?>
<!-- Generator: $$$/GeneralStr/196=Adobe Illustrator 27.6.0, SVG Export Plug-In . SVG Version: 6.00 Build 0)  -->
<svg version="1.1" id="图层_1" xmlns="http://www.w3.org/2000/svg" xmlns:xlink="http://www.w3.org/1999/xlink" x="0px" y="0px"
	 viewBox="0 0 2000 2000" enable-background="new 0 0 2000 2000" xml:space="preserve">
<g>
	<path d="M1502.43,2000H497.57C222.77,2000,0,1777.23,0,1502.43V497.57C0,222.77,222.77,0,497.57,0h1004.87
		C1777.23,0,2000,222.77,2000,497.57v1004.87C2000,1777.23,1777.23,2000,1502.43,2000z"/>
</g>
<path fill="#FFFFFF" d="M1028,992"/>
<g>
	<path fill="#FFFFFF" d="M412,662.34c0-155.25,124.2-279.45,279.45-279.45h842.22c31.05,0,54.34,23.29,54.34,54.34
		s-23.29,54.34-54.34,54.34h-426.93l-31.05,97.03c-38.81,116.44-77.62,236.75-120.32,353.19l-34.93,108.67
		C881.62,1163.01,842.81,1279.45,804,1392c-34.93,100.91-85.39,163.01-143.6,194.06c-58.22,31.05-116.44,31.05-155.25,31.05h-7.76
		c-34.93,0-62.1-27.17-62.1-62.1s27.17-62.1,62.1-62.1c42.69,0,73.74,0,100.91-15.52c23.29-11.64,58.22-42.69,89.27-128.08
		c19.41-58.22,58.22-170.77,104.79-298.85l34.93-108.67c42.69-131.96,89.27-260.04,131.96-392l19.41-58.22H691.45
		c-97.03,0-166.89,73.74-166.89,166.89c0,34.93-27.17,62.1-58.22,62.1S412,693.39,412,662.34z"/>
	<path fill="#FFFFFF" d="M505.15,1642.11h-7.76c-48.84,0-87.1-38.26-87.1-87.1s38.26-87.1,87.1-87.1c40.41,0,67.1,0,88.51-12.23
		l1.22-0.65c16.14-8.07,47.57-33.6,76.84-113.95c18.01-54.01,52.19-153.16,92.76-265.62l52.42-158.67
		c19.74-60.41,40.43-120.67,60.49-179.12c21.91-63.82,44.56-129.81,65.84-195.58l0.07-0.21l8.44-25.31H691.45
		c-80.89,0-141.89,61-141.89,141.89c0,23.16-8.67,44.98-24.4,61.43c-15.6,16.31-37.04,25.67-58.82,25.67
		c-43.75,0-79.34-37.33-79.34-83.22c0-81.76,31.55-158.34,88.83-215.62s133.86-88.83,215.62-88.83h842.22
		c21.69,0,41.76,8.11,56.49,22.85c14.73,14.73,22.85,34.79,22.85,56.49s-8.11,41.76-22.85,56.49
		c-14.73,14.73-34.79,22.85-56.49,22.85h-408.68l-25.58,79.94c-7.73,23.18-15.6,46.97-23.22,69.98
		c-27.29,82.41-55.39,167.29-85.16,250.31l-52.75,158.67c-17.5,50.93-35.2,103.14-52.37,153.8
		c-19.09,56.32-38.83,114.56-58.26,170.9c-35.23,101.77-87.53,171.73-155.47,207.97C608.43,1642.11,546.28,1642.11,505.15,1642.11z
		 M610.1,1499.43c-32.76,18.48-68.08,18.48-112.71,18.48c-21.15,0-37.1,15.95-37.1,37.1c0,21.15,15.95,37.1,37.1,37.1h7.76
		c38.31,0,90.78,0,143.48-28.11c56.46-30.11,100.78-90.73,131.74-180.18c19.38-56.19,39.09-114.36,58.17-170.62
		c19.09-56.32,38.83-114.56,58.26-170.9l5.81-16.85h184.72c17.27,0,29.34-12.06,29.34-29.34s-12.06-29.34-29.34-29.34H919.57
		l12.32-33.61c34.05-92.86,65.96-189.22,96.82-282.42c7.61-22.98,15.48-46.75,23.21-69.94l36.56-114.26h445.18
		c17.27,0,29.34-12.06,29.34-29.34s-12.06-29.34-29.34-29.34H691.45C551.14,407.89,437,522.03,437,662.34
		c0,18.32,13.16,33.22,29.34,33.22c18.01,0,33.22-16.99,33.22-37.1c0-52.09,19.26-100.36,54.24-135.91
		c35.52-36.1,84.4-55.98,137.65-55.98h321.89L983,557.57c-21.41,66.16-44.12,132.33-66.09,196.33
		c-21.91,63.82-44.56,129.81-65.84,195.58l-5.6,17.3H637.11c-17.27,0-29.34,12.06-29.34,29.34s12.06,29.34,29.34,29.34h190.94
		l-12.2,33.54c-45.75,125.82-84.93,239.28-104.57,298.21l-0.22,0.64C684.33,1431.36,650.36,1478.99,610.1,1499.43z"/>
</g>
<path fill="#FFFFFF" d="M1331,1075H635c-44.18,0-80-35.82-80-80v0c0-44.18,35.82-80,80-80h696c44.18,0,80,35.82,80,80v0
	C1411,1039.18,1375.18,1075,1331,1075z"/>
<g>
</g>
<g>
</g>
<g>
</g>
<g>
</g>
<g>
</g>
<g>
</g>
<g>
</g>
<g>
</g>
<g>
</g>
<g>
</g>
<g>
</g>
<g>
</g>
<g>
</g>
<g>
</g>
<g>
</g>
</svg>
